<svg id="App_icons" data-name="App icons" xmlns="http://www.w3.org/2000/svg" xmlns:xlink="http://www.w3.org/1999/xlink" viewBox="0 0 128 128"><defs><style>.cls-1{fill:url(#linear-gradient);}.cls-2,.cls-3,.cls-4{fill:#fff;}.cls-3{opacity:0.7;}.cls-4{opacity:0.4;}</style><linearGradient id="linear-gradient" x1="220" y1="50.37" x2="220" y2="189.49" gradientUnits="userSpaceOnUse"><stop offset="0" stop-color="#9964ff"/><stop offset="1" stop-color="#893eff"/></linearGradient></defs><title>wordaday</title><path class="cls-1" d="M284,83.5v73A27.5,27.5,0,0,1,256.5,184h-73A27.5,27.5,0,0,1,156,156.5v-73A27.5,27.5,0,0,1,183.5,56h73A27.5,27.5,0,0,1,284,83.5Z" transform="translate(-156 -56)"/><path class="cls-2" d="M257.3,148.1,246.7,91.9A5,5,0,0,0,242,88H214l12,64h28A3.2,3.2,0,0,0,257.3,148.1Z" transform="translate(-156 -56)"/><polygon class="cls-3" points="54 96 70 96 58 32 42 32 54 96"/><path class="cls-4" d="M198,88H186a3.2,3.2,0,0,0-3.3,3.9l10.6,56.2A5,5,0,0,0,198,152h12Z" transform="translate(-156 -56)"/></svg>